# xmcd
#
# Track frame offsets: 
#        150
#        18150
#        36300
#        46125
#        69300
#        78675
#        96750
#        112950
#        129900
#        148050
#        162000
#        175050
#        185775
#        195825
#        216300
#        242625
#
# Disc length: 3468 seconds
#
# Revision: 0
# Processed by: cddbd v1.5.2PL0 Copyright (c) Steve Scherf et al.
# Submitted via: ExactAudioCopy v0.95b4
#
DISCID=d30d8a10
DTITLE=Wolfgang Ambros - Double Gold (2 Disk)
DYEAR=1994
DGENRE=Folk/Rock
TTITLE0=A Gulasch und A Seitl Bier
TTITLE1=Du Schwarzer Afgahne
TTITLE2=Frage der Zeit
TTITLE3=Es lebe der Zentalfriedhof
TTITLE4=De best'n Liada
TTITLE5=Auftritt
TTITLE6=Original Claks
TTITLE7=De Foto
TTITLE8=Schifoan
TTITLE9=Hollaröhdulliöh
TTITLE10=A Mensch möcht i bleibn
TTITLE11=Eibischzuckerl
TTITLE12=Lokalverbot
TTITLE13=Der Berg
TTITLE14=Allan wie A Stan
TTITLE15=I glaub I Ge jetzt
EXTD=
EXTT0=
EXTT1=
EXTT2=
EXTT3=
EXTT4=
EXTT5=
EXTT6=
EXTT7=
EXTT8=
EXTT9=
EXTT10=
EXTT11=
EXTT12=
EXTT13=
EXTT14=
EXTT15=
PLAYORDER=
